<svg version="1.1" id="Layer_1" xmlns="http://www.w3.org/2000/svg" xmlns:xlink="http://www.w3.org/1999/xlink" x="0px" y="0px"
	 width="100%" viewBox="0 0 512 512" enable-background="new 0 0 512 512" xml:space="preserve">
<path fill="#4A566E" opacity="1.000000" stroke="none" 
	d="
M66.000000,1.000000 
	C193.022644,1.000000 320.045288,1.000000 447.697571,1.367367 
	C449.930756,2.019824 451.541138,2.271199 453.136780,2.595268 
	C467.959412,5.605711 479.933960,13.389623 489.985138,24.470898 
	C501.130493,36.758518 507.817017,51.168087 507.876556,67.707565 
	C508.154846,144.982819 508.001129,222.259659 507.993042,299.535919 
	C507.992828,301.364319 507.888885,303.192749 507.558350,304.846771 
	C467.425415,265.499420 427.567505,226.326462 387.457794,186.906021 
	C338.244141,235.807770 288.208984,285.525848 238.134064,335.283417 
	C202.724197,300.366760 167.795288,265.924347 132.530243,231.150513 
	C131.271698,232.343033 129.695831,233.768036 128.195099,235.268188 
	C92.857948,270.592072 57.534874,305.930084 22.191927,341.248169 
	C16.894369,346.541992 11.510635,351.749603 6.097110,356.533234 
	C6.018274,262.259827 6.101094,168.450058 5.904961,74.640907 
	C5.874020,59.842209 8.553427,46.032745 16.809578,33.662872 
	C25.122400,21.208096 35.737576,11.300080 50.026848,6.000697 
	C55.250908,4.063279 60.669922,2.651547 66.000000,1.000000 
M225.541428,126.833633 
	C209.003876,131.238602 197.806473,141.310898 192.738312,157.834900 
	C185.280777,182.149170 200.533859,208.166306 225.582489,213.906815 
	C250.242538,219.558273 275.186279,202.712280 279.381989,177.944687 
	C284.407257,148.280121 259.017578,120.570747 225.541428,126.833633 
z"/>
<path fill="#00B594" opacity="1.000000" stroke="none" 
	d="
M6.166765,356.997101 
	C11.510635,351.749603 16.894369,346.541992 22.191927,341.248169 
	C57.534874,305.930084 92.857948,270.592072 128.195099,235.268188 
	C129.695831,233.768036 131.271698,232.343033 132.530243,231.150513 
	C167.795288,265.924347 202.724197,300.366760 238.134064,335.283417 
	C288.208984,285.525848 338.244141,235.807770 387.457794,186.906021 
	C427.567505,226.326462 467.425415,265.499420 507.625977,305.309326 
	C507.976288,350.930969 507.863464,395.916199 508.065460,440.899994 
	C508.125824,454.341187 505.271515,466.829620 498.247162,478.254639 
	C489.311676,492.788239 477.357544,503.781372 460.772919,509.035278 
	C456.220184,510.477570 451.593018,511.684875 447.000000,513.000000 
	C320.312439,513.000000 193.624878,513.000000 66.305649,512.632874 
	C64.072548,511.974426 62.464912,511.713379 60.870663,511.386993 
	C46.247017,508.393341 34.431931,500.726868 24.357334,489.898346 
	C13.639355,478.378326 6.737181,464.705688 6.295242,449.274689 
	C5.414999,418.539490 6.117877,387.758911 6.166765,356.997101 
z"/>
<path fill="#FFFFFF" opacity="1.000000" stroke="none" 
	d="
M447.468658,513.000000 
	C451.593018,511.684875 456.220184,510.477570 460.772919,509.035278 
	C477.357544,503.781372 489.311676,492.788239 498.247162,478.254639 
	C505.271515,466.829620 508.125824,454.341187 508.065460,440.899994 
	C507.863464,395.916199 507.976288,350.930969 507.900940,305.483704 
	C507.888885,303.192749 507.992828,301.364319 507.993042,299.535919 
	C508.001129,222.259659 508.154846,144.982819 507.876556,67.707565 
	C507.817017,51.168087 501.130493,36.758518 489.985138,24.470898 
	C479.933960,13.389623 467.959412,5.605711 453.136780,2.595268 
	C451.541138,2.271199 449.930756,2.019824 448.163605,1.367367 
	C469.651917,1.000000 491.303833,1.000000 512.951172,1.000003 
	C512.946533,171.666672 512.946533,342.333344 512.946533,513.000000 
	C491.241119,513.000000 469.589203,513.000000 447.468658,513.000000 
z"/>
<path fill="#FFFFFF" opacity="1.000000" stroke="none" 
	d="
M6.097111,356.533234 
	C6.117877,387.758911 5.414999,418.539490 6.295242,449.274689 
	C6.737181,464.705688 13.639355,478.378326 24.357334,489.898346 
	C34.431931,500.726868 46.247017,508.393341 60.870663,511.386993 
	C62.464912,511.713379 64.072548,511.974426 65.836990,512.632874 
	C44.348106,513.000000 22.696213,513.000000 1.048722,513.000000 
	C1.053125,342.333313 1.053125,171.666656 1.053125,1.000000 
	C22.425060,1.000000 43.743874,1.000000 65.531342,1.000000 
	C60.669922,2.651547 55.250908,4.063279 50.026848,6.000697 
	C35.737576,11.300080 25.122400,21.208096 16.809578,33.662872 
	C8.553427,46.032745 5.874020,59.842209 5.904961,74.640907 
	C6.101094,168.450058 6.018274,262.259827 6.097111,356.533234 
z"/>
<path fill="#FECB04" opacity="1.000000" stroke="none" 
	d="
M225.954315,126.716537 
	C259.017578,120.570747 284.407257,148.280121 279.381989,177.944687 
	C275.186279,202.712280 250.242538,219.558273 225.582489,213.906815 
	C200.533859,208.166306 185.280777,182.149170 192.738312,157.834900 
	C197.806473,141.310898 209.003876,131.238602 225.954315,126.716537 
z"/>
</svg>