<svg version="1.0" xmlns="http://www.w3.org/2000/svg"
viewBox="0 0 1200 1200" preserveAspectRatio="xMidYMid meet"
style="width: 100%; height: auto; display: block;">
  <g transform="translate(0,1200) scale(0.1,-0.1)" fill="#000000" stroke="none">
    <path d="M1200 6450 l0 -1950 1800 0 1800 0 0 75 0 75 -1725 0 -1725 0 0 1800
    0 1800 4650 0 4650 0 0 -1800 0 -1800 -1725 0 -1725 0 0 -75 0 -75 1800 0
    1800 0 0 1950 0 1950 -4800 0 -4800 0 0 -1950z"/>
    <path d="M6880 6640 l0 -450 95 0 95 0 0 450 0 450 -95 0 -95 0 0 -450z"/>
    <path d="M9370 6935 l0 -154 -52 32 c-49 30 -56 32 -152 32 -93 0 -105 -2
    -154 -29 -108 -60 -165 -159 -165 -290 -1 -102 21 -170 75 -230 94 -108 245
    -143 373 -87 22 10 46 25 54 34 21 26 31 20 31 -18 l0 -35 90 0 90 0 0 450 0
    450 -95 0 -95 0 0 -155z m-96 -249 c96 -40 130 -202 59 -286 -74 -88 -214 -82
    -271 13 -39 64 -36 171 7 224 48 58 134 79 205 49z"/>
    <path d="M6291 7044 c-92 -19 -165 -58 -226 -119 -127 -128 -160 -328 -82
    -499 32 -69 111 -154 175 -189 174 -95 440 -68 561 57 l31 32 -60 59 -60 59
    -27 -26 c-136 -127 -363 -88 -439 76 -28 59 -32 166 -10 229 36 99 117 158
    231 165 86 5 132 -7 197 -55 l48 -34 60 52 c33 30 60 57 60 61 0 11 -82 74
    -129 98 -52 26 -159 50 -221 49 -25 0 -74 -7 -109 -15z"/>
    <path d="M2440 6615 l0 -425 100 0 100 0 0 425 0 425 -100 0 -100 0 0 -425z"/>
    <path d="M2830 6518 l0 -328 95 0 95 0 0 193 c0 216 7 243 69 284 42 28 119
    31 162 6 53 -31 59 -60 59 -282 l0 -201 96 0 96 0 -4 233 c-3 217 -5 235 -26
    282 -13 27 -33 61 -45 74 -84 92 -301 96 -394 9 l-23 -21 0 39 0 40 -90 1 -90
    0 0 -329z"/>
    <path d="M3570 6836 c1 -6 61 -153 134 -326 l133 -315 98 0 98 0 133 315 c74
    173 134 320 134 326 0 7 -30 11 -86 10 l-86 -1 -91 -217 c-51 -120 -95 -218
    -98 -218 -3 0 -41 87 -84 193 -110 271 -87 242 -194 243 -61 1 -91 -2 -91 -10z"/>
    <path d="M4560 6841 c-89 -28 -169 -96 -209 -181 -35 -76 -36 -200 -2 -278 47
    -105 163 -182 297 -197 106 -12 247 28 298 84 l20 22 -50 50 -51 51 -37 -26
    c-109 -74 -275 -30 -310 82 l-7 22 252 0 252 0 -6 76 c-14 190 -144 305 -340
    303 -45 0 -93 -4 -107 -8z m206 -156 c29 -19 64 -72 64 -97 0 -16 -14 -18
    -160 -18 -178 0 -181 1 -140 67 46 77 157 100 236 48z"/>
    <path d="M5140 6518 l0 -328 95 0 95 0 0 193 c0 216 7 243 69 284 42 28 119
    31 162 6 53 -31 59 -60 59 -282 l0 -201 96 0 96 0 -4 233 c-3 217 -5 235 -26
    282 -13 27 -33 61 -45 74 -84 92 -301 96 -394 9 l-23 -21 0 39 0 40 -90 1 -90
    0 0 -329z"/>
    <path d="M7433 6836 c-89 -29 -167 -99 -206 -185 -31 -67 -30 -197 1 -266 121
    -267 536 -270 661 -5 21 45 26 70 26 140 0 73 -4 93 -28 141 -32 67 -99 132
    -165 162 -59 26 -224 34 -289 13z m226 -166 c68 -48 90 -158 49 -240 -27 -53
    -62 -80 -114 -89 -82 -15 -144 16 -181 89 -51 100 -10 223 87 263 34 14 126 1
    159 -23z"/>
    <path d="M8050 6620 c0 -245 6 -281 55 -346 30 -39 112 -80 176 -89 63 -9 149
    10 201 45 l43 29 3 -34 3 -35 90 0 89 0 0 328 0 329 -92 -1 -93 -1 -5 -200
    c-4 -173 -8 -204 -24 -231 -53 -88 -179 -94 -240 -11 -19 26 -21 45 -24 236
    l-3 207 -90 1 -89 0 0 -227z"/>
    <path d="M6330 4505 l0 -825 250 0 250 0 0 825 0 825 -250 0 -250 0 0 -825z
    m430 0 l0 -755 -185 0 -185 0 0 755 0 755 185 0 185 0 0 -755z"/>
    <path d="M5170 4270 l0 -590 250 0 250 0 0 590 0 590 -250 0 -250 0 0 -590z
    m440 0 l0 -520 -185 0 -185 0 0 520 0 520 185 0 185 0 0 -520z"/>
    <path d="M5750 4075 l0 -395 250 0 250 0 0 395 0 395 -250 0 -250 0 0 -395z
    m430 0 l0 -325 -180 0 -180 0 0 325 0 325 180 0 180 0 0 -325z"/>
  </g>
</svg>
